<?xml version="1.0" encoding="utf-8"?>
<!-- Generator: Adobe Illustrator 16.0.0, SVG Export Plug-In . SVG Version: 6.00 Build 0)  -->
<!DOCTYPE svg PUBLIC "-//W3C//DTD SVG 1.1//EN" "http://www.w3.org/Graphics/SVG/1.1/DTD/svg11.dtd">
<svg version="1.1" id="Layer_1" xmlns="http://www.w3.org/2000/svg" xmlns:xlink="http://www.w3.org/1999/xlink" x="0px" y="0px"
	 width="300px" height="300px" viewBox="0 0 300 300" enable-background="new 0 0 300 300" xml:space="preserve">
<path fill="#E9E9EA" d="M150,150"/>
<g>
	<path fill="#092E20" d="M38.064,98.826h16.021v74.157c-8.219,1.559-14.252,2.184-20.806,2.184
		c-19.559,0-29.753-8.842-29.753-25.798c0-16.333,10.82-26.944,27.568-26.944c2.601,0,4.576,0.208,6.97,0.831V98.826L38.064,98.826z
		 M38.064,136.152c-1.873-0.624-3.434-0.832-5.409-0.832c-8.115,0-12.796,4.994-12.796,13.731c0,8.533,4.474,13.212,12.691,13.212
		c1.769,0,3.226-0.104,5.514-0.414V136.152z"/>
	<path fill="#092E20" d="M79.572,123.565v37.14c0,12.797-0.937,18.934-3.745,24.238c-2.602,5.1-6.035,8.324-13.107,11.861
		l-14.878-7.074c7.074-3.328,10.508-6.242,12.691-10.717c2.29-4.576,3.018-9.885,3.018-23.822v-31.626H79.572z M63.551,98.911
		h16.021v16.438H63.551V98.911z"/>
	<path fill="#092E20" d="M89.249,127.208c7.075-3.328,13.836-4.785,21.224-4.785c8.219,0,13.628,2.184,16.021,6.449
		c1.353,2.393,1.769,5.513,1.769,12.172v32.562c-7.18,1.041-16.229,1.768-22.888,1.768c-13.419,0-19.454-4.682-19.454-15.084
		c0-11.237,8.012-16.438,27.674-18.102v-3.537c0-2.914-1.457-3.952-5.515-3.952c-5.929,0-12.587,1.664-18.831,4.89L89.249,127.208
		L89.249,127.208z M114.32,152.695c-10.612,1.039-14.045,2.705-14.045,6.867c0,3.119,1.977,4.576,6.347,4.576
		c2.394,0,4.577-0.207,7.698-0.73V152.695L114.32,152.695z"/>
	<path fill="#092E20" d="M136.063,126.062c9.466-2.497,17.268-3.64,25.174-3.64c8.219,0,14.148,1.872,17.688,5.513
		c3.327,3.432,4.367,7.177,4.367,15.188v31.417h-16.021v-30.792c0-6.138-2.08-8.427-7.801-8.427c-2.186,0-4.162,0.208-7.389,1.144
		v38.076h-16.02v-48.479H136.063z"/>
	<path fill="#092E20" d="M189.521,183.281c5.619,2.912,11.235,4.264,17.166,4.264c10.506,0,14.979-4.264,14.979-14.459
		c0-0.104,0-0.209,0-0.312c-3.121,1.561-6.241,2.184-10.402,2.184c-14.043,0-22.992-9.258-22.992-23.926
		c0-18.208,13.213-28.505,36.619-28.505c6.867,0,13.213,0.728,20.911,2.288l-5.485,11.556c-4.266-0.832-0.34-0.111-3.564-0.423
		v1.665l0.208,6.761l0.103,8.74c0.104,2.184,0.104,4.369,0.211,6.555c0,1.977,0,2.914,0,4.369c0,13.732-1.146,20.182-4.578,25.486
		c-4.993,7.805-13.629,11.65-25.903,11.65c-6.242,0-11.651-0.936-17.271-3.119V183.281L189.521,183.281z M221.354,135.425
		c-0.207,0-0.414,0-0.521,0h-1.146c-3.119-0.104-6.76,0.727-9.258,2.287c-3.848,2.186-5.826,6.139-5.826,11.756
		c0,8.012,3.955,12.59,11.027,12.59c2.186,0,3.953-0.418,6.034-1.041v-1.146v-4.367c0-1.873-0.104-3.955-0.104-6.138l-0.104-7.386
		l-0.105-5.307v-1.248H221.354z"/>
	<path fill="#092E20" d="M270.674,122.213c16.019,0,25.8,10.091,25.8,26.425c0,16.75-10.193,27.258-26.425,27.258
		c-16.021,0-25.903-10.092-25.903-26.322C244.146,132.72,254.341,122.213,270.674,122.213z M270.358,162.994
		c6.141,0,9.781-5.098,9.781-13.942c0-8.738-3.537-13.938-9.676-13.938c-6.346,0-9.986,5.099-9.986,13.938
		C260.478,157.896,264.119,162.994,270.358,162.994z"/>
</g>
</svg>
