<?xml version="1.0" encoding="utf-8"?>
<!-- Generator: Adobe Illustrator 16.0.0, SVG Export Plug-In . SVG Version: 6.00 Build 0)  -->
<!DOCTYPE svg PUBLIC "-//W3C//DTD SVG 1.1//EN" "http://www.w3.org/Graphics/SVG/1.1/DTD/svg11.dtd">
<svg version="1.1" id="Layer_1" xmlns="http://www.w3.org/2000/svg" xmlns:xlink="http://www.w3.org/1999/xlink" x="0px" y="0px"
	 width="300px" height="300px" viewBox="0 0 300 300" enable-background="new 0 0 300 300" xml:space="preserve">
<g>
	<path d="M289.851,141.11c0-2.408,1.847-4.375,4.175-4.375c2.288,0,4.173,1.967,4.173,4.375c0,2.448-1.885,4.415-4.173,4.415
		C291.697,145.525,289.851,143.559,289.851,141.11 M297.074,141.11c0-1.967-1.284-3.371-3.049-3.371
		c-1.807,0-3.051,1.404-3.051,3.371c0,1.966,1.244,3.37,3.051,3.37C295.791,144.48,297.074,143.117,297.074,141.11 M296.071,143.518
		h-1.082l-1.005-2.006h-0.762v2.006h-0.964v-4.774h2.167c1.163,0,1.767,0.321,1.767,1.444c0,0.884-0.441,1.243-1.244,1.284
		L296.071,143.518z M294.508,140.789c0.521,0,0.843-0.12,0.843-0.681c0-0.642-0.644-0.604-1.085-0.604h-1.003v1.284H294.508z"/>
	<polygon points="28.447,132.362 18.816,132.362 18.816,164.866 11.392,164.866 11.392,132.362 1.802,132.362 1.802,125.741 
		28.447,125.741 	"/>
	<path d="M38.239,139.626c2.248-1.966,4.976-3.532,7.946-3.532c2.889,0,6.983,1.847,6.983,8.789v19.985h-7.022v-16.975
		c0-2.247,0.161-5.819-2.889-5.819c-2.046,0-3.652,1.565-4.976,3.05v19.704h-7.023v-39.087h7.023v13.885"/>
	<path d="M56.097,150.782c0-7.504,3.893-14.688,11.678-14.688c7.785,0,11.678,7.184,11.678,14.688
		c0,7.464-3.933,14.688-11.678,14.688C60.03,165.47,56.097,158.206,56.097,150.782 M72.229,150.782c0-3.491-0.682-9.19-4.455-9.19
		c-3.812,0-4.454,5.699-4.454,9.19c0,3.532,0.682,9.189,4.454,9.189C71.586,159.972,72.229,154.313,72.229,150.782"/>
	<path d="M97.47,161.938c-2.248,1.966-4.976,3.531-7.946,3.531c-2.889,0-6.982-1.847-6.982-8.788v-19.984h7.023v16.934
		c0,2.248-0.12,5.819,2.89,5.819c2.046,0,3.652-1.565,4.975-3.05v-19.703h7.023v28.171h-7.023v-2.93"/>
	<path d="M116.01,155.598c-0.803,0-2.007,0.441-2.007,1.767c0,3.651,18.46-2.73,18.46,8.306c0,4.174-2.649,8.589-13.204,8.589
		c-9.188,0-12.319-3.412-12.319-7.104c0-2.168,1.284-3.251,2.889-4.254c-1.163-0.922-2.087-1.966-2.087-3.57
		c0-2.77,1.406-4.215,3.491-5.619c-1.966-2.007-3.332-4.534-3.332-7.744c0-6.22,4.977-9.873,10.715-9.873
		c2.328,0,4.575,0.724,6.542,1.967c1.445-1.404,2.688-2.287,4.815-2.287c0.683,0,1.364,0.04,2.046,0.2v5.217
		c-0.723-0.321-1.484-0.602-2.248-0.602c-0.762,0-1.244,0.24-1.886,0.602c0.762,1.524,1.364,3.17,1.445,4.776
		c0,6.219-4.937,9.872-10.715,9.872L116.01,155.598 M113.764,164.908c-0.642,0.441-1.083,0.843-1.083,1.764
		c0,2.609,4.975,2.77,6.662,2.77c1.204,0,7.383-0.16,7.383-2.407c0-1.445-0.962-1.326-5.136-1.566L113.764,164.908z
		 M118.618,150.862c2.931,0,3.812-2.567,3.812-5.217c0-2.569-1.123-4.736-3.812-4.736c-2.929,0-3.852,2.608-3.852,5.298
		C114.766,148.774,115.93,150.862,118.618,150.862"/>
	<path d="M142.095,139.626c2.248-1.966,4.977-3.532,7.946-3.532c2.888,0,6.981,1.847,6.981,8.789v19.985H150v-16.975
		c0-2.247,0.162-5.819-2.888-5.819c-2.047,0-3.652,1.565-4.977,3.05v19.704h-7.062v-39.087h7.023v13.885"/>
	<path d="M169.823,136.697h5.458v6.179h-5.458v14.327c0,1.363,0.361,2.769,2.649,2.769c1.205,0,1.966-0.521,2.809-1.044v5.699
		c-1.482,0.443-3.009,0.843-4.533,0.843c-4.376,0-7.987-2.608-7.987-8.748v-13.846h-3.29v-6.179h3.29v-7.023h7.023v7.023"/>
	<polygon points="204.537,164.866 200.765,164.866 194.463,132.884 194.384,132.884 187.763,164.866 183.989,164.866 
		176.205,125.741 179.938,125.741 185.997,157.322 186.117,157.322 192.778,125.741 196.43,125.741 202.731,157.322 202.85,157.322 
		209.352,125.741 213.003,125.741 	"/>
	<path d="M211.397,150.983c0-10.395,4.656-14.688,10.515-14.688s10.515,4.294,10.515,14.688c0,10.392-4.656,14.687-10.515,14.687
		S211.397,161.375,211.397,150.983 M228.694,150.983c0-4.736-1.084-11.357-6.781-11.357c-5.696,0-6.782,6.621-6.782,11.357
		c0,4.735,1.086,11.355,6.782,11.355C227.61,162.339,228.694,155.719,228.694,150.983"/>
	<path d="M239.009,143.076h0.078c1.485-3.33,3.373-6.38,7.263-6.38h1.446v3.57c-4.857-0.723-7.386,4.815-8.789,8.869v15.73h-3.692
		v-27.77h3.692v5.979"/>
	<polygon points="254.498,149.98 264.249,137.098 268.382,137.098 261.159,146.608 269.466,164.866 265.493,164.866 
		258.751,149.778 254.498,155.356 254.498,164.866 250.804,164.866 250.804,125.741 254.498,125.741 	"/>
	<path d="M285.518,143.276c-1.484-2.327-3.21-3.691-5.979-3.691c-2.407,0-4.694,1.284-4.694,4.134
		c0,6.782,13.844,3.812,13.844,13.163c0,5.418-3.651,8.748-8.588,8.748c-4.214,0-7.665-1.967-9.792-5.858l2.973-1.967
		c1.403,2.85,3.69,4.495,6.82,4.495c2.729,0,5.138-1.566,5.138-4.736c0-6.982-13.844-3.69-13.844-13.644
		c0-4.776,3.69-7.705,8.026-7.705c3.65,0,6.701,1.604,8.747,4.815L285.518,143.276"/>
</g>
</svg>
