<?xml version="1.0" encoding="utf-8"?>
<!-- Generator: Adobe Illustrator 16.0.0, SVG Export Plug-In . SVG Version: 6.00 Build 0)  -->
<!DOCTYPE svg PUBLIC "-//W3C//DTD SVG 1.1//EN" "http://www.w3.org/Graphics/SVG/1.1/DTD/svg11.dtd">
<svg version="1.1" id="Layer_1" xmlns="http://www.w3.org/2000/svg" xmlns:xlink="http://www.w3.org/1999/xlink" x="0px" y="0px"
	 width="300px" height="300px" viewBox="0 0 300 300" enable-background="new 0 0 300 300" xml:space="preserve">
<path fill="#FFFFFF" d="M290.812,180.348c-0.204-0.184-0.323-0.438-0.323-0.705c0-0.424,0.281-0.678,0.313-0.707
	c0.69-0.453,1.25-0.871,1.757-1.307l0.236-0.211c5.879-5.508,6.28-13.008,1.079-19.045l-9.376-11.92l9.282-11.818
	c5.364-6.218,4.9-13.708-1.182-19.078c-2.839-2.513-5.915-3.788-9.146-3.788c-2.6,0-6.473,0.875-10.169,5.041
	c-0.098,0.111-0.19,0.221-0.271,0.326l-5.787,7.356l-5.778-7.345c-0.092-0.12-0.188-0.233-0.283-0.339
	c-3.692-4.165-7.572-5.038-10.177-5.038c-3.227,0-6.315,1.276-9.195,3.803c-0.227,0.202-0.448,0.411-0.664,0.625
	c-2.383-2.833-5.98-4.365-10.382-4.365c-8.329,0-13.714,5.367-13.714,13.674v28.556h-5.524c-0.645,0-1.165-0.521-1.165-1.168
	v-27.389c0-8.306-5.335-13.673-13.59-13.673c-7.403,0-12.456,4.289-13.419,11.128v-14.39c0-8.331-5.369-13.715-13.674-13.715
	c-8.203,0-13.504,5.384-13.504,13.715v10.186c-4.519-4.462-11.108-6.791-19.376-6.791h-8.403c-7.329,0-13.263,1.779-17.682,5.296
	c-2.323-3.481-6.271-5.43-11.174-5.43l-0.242,0.004c-6.417,0.214-9.583,3.253-11.109,5.765c-0.515,0.846-1.199,1.974-5.682,14.951
	c-4.403-12.782-4.975-13.87-5.365-14.613c-1.459-2.786-4.656-6.107-11.596-6.107c-3.046,0-5.768,0.738-7.957,2.147
	c-2.201-1.326-4.923-2.021-7.964-2.021H16.079c-8.255,0-13.587,5.334-13.587,13.587v29.138c0,9.463,2.856,16.592,8.49,21.189
	c0.527,0.535,0.815,1.234,0.815,1.982c0,0.848-0.375,1.643-1.058,2.205c-0.048,0.043-0.096,0.09-0.142,0.137
	c-0.676,0.555-1.267,1.125-1.807,1.75c-2.264,2.637-3.46,5.836-3.46,9.246c0,3.846,1.466,7.316,4.247,10.037
	c2.642,2.561,6.099,3.914,9.999,3.914h264.039c1.719,0,3.336-0.316,4.756-0.916c5.237-2.025,8.62-6.957,8.62-12.562
	C296.99,187.072,294.683,182.85,290.812,180.348z"/>
<path fill="#E9E9EA" d="M150,150"/>
<g>
	<path fill="#373435" d="M51.993,168.318c0,4.354-2.208,6.535-6.623,6.535H23.203c-13.248,0-19.872-6.771-19.872-20.314v-30.47
		c0-4.413,2.207-6.623,6.624-6.623h35.062c4.621-0.028,6.934,2.163,6.934,6.579c-0.029,4.299-2.283,6.491-6.756,6.58l-28.615-0.043
		v8.832l19.827-0.09c4.475,0.061,6.712,2.341,6.712,6.846c0.029,4.298-2.164,6.449-6.579,6.449l-19.96,0.043v2.207
		c0,4.504,2.252,6.756,6.757,6.756l22.166,0.043C49.83,161.646,51.993,163.871,51.993,168.318z"/>
	<path fill="#373435" d="M103.702,124.026L85.82,170.393c-1.06,2.678-2.452,4.102-4.173,4.264c-1.722,0.162-3.327,0.115-4.813-0.133
		c-1.486-0.252-2.848-1.629-4.083-4.129l-17.709-46.458c0-4.415,2.207-6.624,6.625-6.624c2.796,0,4.599,0.774,5.408,2.32
		c0.811,1.542,4.924,13.343,12.343,35.39c7.358-22.047,11.496-33.823,12.409-35.325c0.912-1.5,2.708-2.294,5.387-2.383
		C101.54,117.313,103.702,119.552,103.702,124.026z"/>
	<path fill="#373435" d="M127.386,117.453h8.788c13.304,0,19.956,6.639,19.956,19.916v17.178c0,13.541-6.622,20.311-19.866,20.311
		h-9.054c-13.159,0-19.739-6.621-19.739-19.869v-17.574C107.47,124.107,114.107,117.453,127.386,117.453z M127.253,130.791
		c-4.357,0-6.536,2.194-6.536,6.58v17.44c0,4.537,2.179,6.803,6.536,6.803h8.919c4.474,0,6.711-2.266,6.711-6.803v-17.618
		c0-4.269-2.238-6.402-6.711-6.402H127.253z"/>
	<path fill="#373435" d="M170.552,99.564c4.472,0,6.713,2.251,6.713,6.756v55.11c4.504,0,6.711,2.15,6.624,6.445
		c0,4.447-2.207,6.713-6.624,6.803l-6.625,0.088c-4.414-0.059-6.623-2.283-6.623-6.672V106.32
		C164.017,101.815,166.193,99.564,170.552,99.564z"/>
	<path fill="#373435" d="M240.923,124.026v44.203c0,4.359-2.207,6.535-6.625,6.535l-22.167-0.043
		c-13.247,0-19.874-6.771-19.874-20.314v-30.469c0-4.415,2.21-6.624,6.627-6.624c4.414,0,6.623,2.238,6.623,6.712v30.648
		c0,4.531,2.25,6.799,6.755,6.799h15.412v-37.447c0-4.474,2.25-6.712,6.755-6.712C238.758,117.313,240.923,119.552,240.923,124.026z
		"/>
	<path fill="#E1B141" d="M294.522,128.707l-34.136,43.451c-2.886,3.299-6.006,3.506-9.361,0.619
		c-3.237-3.033-3.385-6.227-0.442-9.582l34.004-43.23c3.002-3.384,6.163-3.606,9.492-0.662
		C297.346,122.188,297.496,125.323,294.522,128.707z M251.025,119.301c3.355-2.944,6.533-2.722,9.538,0.663l34.002,43.229
		c2.945,3.357,2.796,6.549-0.441,9.584c-3.357,2.885-6.495,2.678-9.405-0.619l-34.093-43.453
		C247.655,125.323,247.788,122.188,251.025,119.301z"/>
	<path fill="#373435" d="M17.458,186.459v2.477c-1.233-1.012-2.509-1.516-3.829-1.516c-1.454,0-2.679,0.508-3.673,1.535
		c-1.002,1.016-1.504,2.266-1.504,3.738c0,1.453,0.501,2.68,1.504,3.686c1.001,0.998,2.229,1.498,3.682,1.498
		c0.751,0,1.391-0.123,1.916-0.359c0.293-0.121,0.597-0.281,0.913-0.484c0.314-0.205,0.646-0.449,0.992-0.738v2.527
		c-1.22,0.68-2.503,1.021-3.847,1.021c-2.021,0-3.748-0.691-5.176-2.076c-1.423-1.393-2.137-3.08-2.137-5.051
		c0-1.768,0.597-3.34,1.788-4.725c1.466-1.695,3.362-2.541,5.689-2.541C15.047,185.451,16.274,185.789,17.458,186.459z"/>
	<path fill="#373435" d="M28.802,196.221h-6.056l-1.576,3.371H18.87l7.001-14.742l6.75,14.742h-2.335L28.802,196.221z
		 M27.932,194.256l-2.098-4.715l-2.2,4.715H27.932z"/>
	<path fill="#373435" d="M35.776,185.721v11.906h4.16v1.965h-6.294v-13.871H35.776z"/>
	<path fill="#373435" d="M44.095,185.721v11.906h4.16v1.965H41.96v-13.871H44.095z"/>
	<path fill="#373435" d="M67.609,186.459v2.477c-1.233-1.012-2.51-1.516-3.83-1.516c-1.453,0-2.679,0.508-3.674,1.535
		c-1.001,1.016-1.502,2.266-1.502,3.738c0,1.453,0.501,2.68,1.502,3.686c1.003,0.998,2.229,1.498,3.684,1.498
		c0.751,0,1.389-0.123,1.913-0.359c0.293-0.121,0.597-0.281,0.913-0.484c0.313-0.205,0.646-0.449,0.993-0.738v2.527
		c-1.222,0.68-2.503,1.021-3.849,1.021c-2.022,0-3.747-0.691-5.177-2.076c-1.422-1.393-2.133-3.08-2.133-5.051
		c0-1.768,0.595-3.34,1.785-4.725c1.466-1.695,3.364-2.541,5.69-2.541C65.198,185.451,66.426,185.789,67.609,186.459z"/>
	<path fill="#373435" d="M78.396,187.686h-5.672v3.332h5.506v1.973h-5.506v4.633h5.672v1.967H70.59v-13.869h7.807V187.686z"/>
	<path fill="#373435" d="M80.818,199.592v-14.816l10.317,10.586v-9.641h2.135v14.715l-10.317-10.555v9.711H80.818z"/>
	<path fill="#373435" d="M100.747,187.686v11.906h-2.136v-11.906h-3.252v-1.965h8.631v1.965H100.747z"/>
	<path fill="#373435" d="M113.66,187.686h-5.672v3.332h5.507v1.973h-5.507v4.633h5.672v1.967h-7.807v-13.869h7.807V187.686z"/>
	<path fill="#373435" d="M121.113,193.682l4.38,5.91h-2.611l-4.041-5.676h-0.383v5.676h-2.135v-13.871h2.5
		c1.869,0,3.219,0.34,4.05,1.033c0.916,0.764,1.375,1.777,1.375,3.037c0,0.982-0.288,1.824-0.861,2.533
		C122.812,193.031,122.054,193.48,121.113,193.682z M118.456,192.09h0.679c2.021,0,3.032-0.76,3.032-2.273
		c0-1.418-0.984-2.131-2.95-2.131h-0.759v4.404H118.456z"/>
	<path fill="#373435" d="M140.866,196.221h-6.056l-1.578,3.371h-2.299l7.001-14.742l6.753,14.742h-2.335L140.866,196.221z
		 M139.997,194.256l-2.1-4.715l-2.197,4.715H139.997z"/>
	<path fill="#373435" d="M155.845,186.459v2.477c-1.231-1.012-2.507-1.516-3.828-1.516c-1.455,0-2.68,0.508-3.675,1.535
		c-1.001,1.016-1.502,2.266-1.502,3.738c0,1.453,0.5,2.68,1.502,3.686c1.003,0.998,2.229,1.498,3.683,1.498
		c0.751,0,1.389-0.123,1.913-0.359c0.295-0.121,0.597-0.281,0.915-0.484c0.312-0.205,0.642-0.449,0.992-0.738v2.527
		c-1.224,0.68-2.503,1.021-3.849,1.021c-2.02,0-3.746-0.691-5.173-2.076c-1.425-1.393-2.136-3.08-2.136-5.051
		c0-1.768,0.594-3.34,1.788-4.725c1.465-1.695,3.361-2.541,5.687-2.541C153.432,185.451,154.659,185.789,155.845,186.459z"/>
	<path fill="#373435" d="M159.049,199.592v-13.871h2.969c1.421,0,2.547,0.139,3.372,0.412c0.884,0.27,1.688,0.729,2.41,1.371
		c1.457,1.309,2.188,3.025,2.188,5.152c0,2.133-0.76,3.857-2.28,5.176c-0.765,0.656-1.565,1.115-2.403,1.373
		c-0.778,0.26-1.889,0.387-3.324,0.387H159.049z M161.179,197.627h0.967c0.959,0,1.756-0.102,2.389-0.299
		c0.636-0.207,1.211-0.541,1.724-0.998c1.051-0.939,1.575-2.164,1.575-3.674c0-1.521-0.52-2.758-1.56-3.701
		c-0.932-0.846-2.309-1.27-4.128-1.27h-0.967V197.627L161.179,197.627z"/>
	<path fill="#373435" d="M183.786,191.877l2.545,3.014l0.085-0.088c0.272-0.293,0.532-0.58,0.775-0.861
		c0.247-0.281,0.48-0.568,0.708-0.854l1.391,1.402c-0.169,0.236-0.395,0.52-0.673,0.836c-0.277,0.316-0.609,0.68-0.993,1.092
		l2.619,3.174h-2.656l-1.412-1.697c-1.295,1.311-2.643,1.967-4.038,1.967c-1.255,0-2.317-0.391-3.192-1.178
		c-0.855-0.789-1.281-1.766-1.281-2.928c0-1.385,0.681-2.533,2.036-3.451l0.922-0.619c0.014-0.006,0.035-0.021,0.066-0.045
		c0.032-0.025,0.073-0.055,0.125-0.1c-0.931-0.977-1.399-1.941-1.399-2.885c0-0.936,0.313-1.693,0.935-2.281
		c0.635-0.586,1.453-0.883,2.456-0.883c0.969,0,1.773,0.285,2.41,0.857c0.636,0.562,0.955,1.285,0.955,2.152
		c0,0.598-0.176,1.145-0.524,1.629C185.302,190.617,184.684,191.195,183.786,191.877z M182.09,193.049l-0.118,0.082
		c-0.873,0.594-1.472,1.072-1.787,1.43c-0.31,0.359-0.465,0.74-0.465,1.141c0,0.576,0.23,1.102,0.701,1.582
		c0.491,0.459,1.03,0.693,1.614,0.693c0.825,0,1.776-0.533,2.854-1.59L182.09,193.049z M182.547,190.402l0.175-0.127
		c0.301-0.221,0.546-0.416,0.743-0.582c0.193-0.16,0.334-0.301,0.42-0.416c0.183-0.217,0.275-0.492,0.275-0.818
		c0-0.363-0.127-0.662-0.375-0.887c-0.253-0.229-0.59-0.344-1.009-0.344c-0.384,0-0.71,0.117-0.973,0.352
		c-0.261,0.223-0.394,0.504-0.394,0.854c0,0.406,0.166,0.809,0.494,1.205l0.534,0.631
		C182.457,190.297,182.49,190.34,182.547,190.402z"/>
	<path fill="#373435" d="M205.289,196.221h-6.054l-1.581,3.371h-2.298l7.002-14.742l6.751,14.742h-2.334L205.289,196.221z
		 M204.42,194.256l-2.099-4.715l-2.197,4.715H204.42z"/>
	<path fill="#373435" d="M210.364,199.592v-14.816l10.316,10.586v-9.641h2.137v14.715l-10.315-10.555v9.711H210.364z"/>
	<path fill="#373435" d="M233.804,196.221h-6.058l-1.577,3.371h-2.298l6.998-14.742l6.755,14.742h-2.339L233.804,196.221z
		 M232.93,194.256l-2.098-4.715l-2.199,4.715H232.93z"/>
	<path fill="#373435" d="M240.985,185.721v11.906h4.163v1.965h-6.293v-13.871H240.985z"/>
	<path fill="#373435" d="M248.834,193.602l-4.62-7.881h2.456l3.234,5.543l3.243-5.543h2.456l-4.639,7.881v5.99h-2.132
		L248.834,193.602L248.834,193.602z"/>
	<path fill="#373435" d="M262.055,187.686v11.906h-2.135v-11.906h-3.253v-1.965h8.629v1.965H262.055z"/>
	<path fill="#373435" d="M269.34,185.721v13.871h-2.136v-13.871H269.34z"/>
	<path fill="#373435" d="M283.191,186.459v2.477c-1.233-1.012-2.511-1.516-3.827-1.516c-1.456,0-2.68,0.508-3.679,1.535
		c-0.998,1.016-1.496,2.266-1.496,3.738c0,1.453,0.498,2.68,1.496,3.686c1.003,0.998,2.232,1.498,3.687,1.498
		c0.752,0,1.391-0.123,1.914-0.359c0.296-0.121,0.597-0.281,0.91-0.484c0.317-0.205,0.646-0.449,0.995-0.738v2.527
		c-1.221,0.68-2.501,1.021-3.846,1.021c-2.024,0-3.748-0.691-5.178-2.076c-1.424-1.393-2.136-3.08-2.136-5.051
		c0-1.768,0.597-3.34,1.789-4.725c1.465-1.695,3.359-2.541,5.688-2.541C280.777,185.451,282.005,185.789,283.191,186.459z"/>
	<path fill="#373435" d="M293.883,187.777l-1.728,1.008c-0.326-0.555-0.636-0.914-0.927-1.078c-0.305-0.193-0.699-0.287-1.183-0.287
		c-0.588,0-1.082,0.162-1.473,0.494c-0.396,0.32-0.59,0.732-0.59,1.221c0,0.678,0.514,1.223,1.537,1.637l1.412,0.564
		c1.149,0.457,1.988,1.014,2.521,1.668c0.528,0.658,0.797,1.463,0.797,2.414c0,1.279-0.434,2.332-1.302,3.168
		c-0.871,0.838-1.956,1.258-3.251,1.258c-1.227,0-2.242-0.357-3.043-1.074c-0.784-0.717-1.278-1.721-1.475-3.014l2.161-0.469
		c0.101,0.816,0.27,1.377,0.515,1.691c0.438,0.598,1.082,0.898,1.922,0.898c0.668,0,1.219-0.219,1.658-0.654
		c0.441-0.439,0.661-0.992,0.661-1.664c0-0.268-0.039-0.518-0.113-0.738c-0.078-0.227-0.196-0.434-0.359-0.619
		c-0.16-0.189-0.37-0.367-0.628-0.531c-0.259-0.168-0.562-0.324-0.917-0.475l-1.366-0.553c-1.937-0.801-2.901-1.977-2.901-3.523
		c0-1.039,0.408-1.91,1.218-2.611c0.812-0.705,1.822-1.057,3.032-1.057C291.696,185.451,292.969,186.225,293.883,187.777z"/>
</g>
</svg>
