<?xml version="1.0" encoding="utf-8"?>
<!-- Generator: Adobe Illustrator 16.0.0, SVG Export Plug-In . SVG Version: 6.00 Build 0)  -->
<!DOCTYPE svg PUBLIC "-//W3C//DTD SVG 1.1//EN" "http://www.w3.org/Graphics/SVG/1.1/DTD/svg11.dtd">
<svg version="1.1" id="Layer_1" xmlns="http://www.w3.org/2000/svg" xmlns:xlink="http://www.w3.org/1999/xlink" x="0px" y="0px"
	 width="300px" height="300px" viewBox="0 0 300 300" enable-background="new 0 0 300 300" xml:space="preserve">
<g>
	<path fill="#3D64AC" d="M67.553,142.063l-39.58-39.579l-8.037,8.037l14.868,14.866L2.658,157.534l39.58,39.579l8.036-8.036
		l-14.867-14.868L67.553,142.063z M20.539,158.738l23.91-23.907l4.822,4.821l-23.908,24.109L20.539,158.738z"/>
	<g>
		<path fill="#3D64AC" d="M94.875,113.936v12.055h13.26v7.032h-13.26v27.325c0,6.228,1.809,9.843,6.831,9.843
			c2.411,0,4.019-0.199,5.424-0.602l0.402,7.031c-1.808,0.603-4.621,1.205-8.238,1.205c-4.219,0-7.835-1.406-9.844-3.816
			c-2.412-2.814-3.617-7.234-3.617-13.261v-27.726h-7.835v-7.032h7.835v-9.442L94.875,113.936z"/>
		<path fill="#3D64AC" d="M157.56,151.104c0,18.684-13.06,26.922-25.315,26.922c-13.662,0-24.311-10.045-24.311-26.118
			c0-16.877,11.251-26.722,25.114-26.722C147.715,124.985,157.56,135.635,157.56,151.104z M117.579,151.507
			c0,11.05,6.228,19.489,15.269,19.489c8.84,0,15.469-8.239,15.469-19.69c0-8.64-4.219-19.288-15.269-19.288
			C122.199,132.018,117.579,142.063,117.579,151.507z"/>
		<path fill="#3D64AC" d="M162.18,142.666c0-6.43-0.2-11.652-0.402-16.475h8.238l0.603,8.64h0.2
			c3.618-6.229,9.646-9.645,18.082-9.645c12.257,0,21.497,10.448,21.497,25.718c0,18.282-11.25,27.122-23.104,27.122
			c-6.63,0-12.657-3.013-15.671-8.035h-0.2v27.524h-9.041v-54.85H162.18z M171.221,156.127c0,1.407,0.202,2.611,0.402,3.818
			c1.607,6.429,7.231,10.848,13.863,10.848c9.644,0,15.469-8.036,15.469-19.487c0-10.046-5.423-18.685-15.068-18.685
			c-6.228,0-12.255,4.419-13.861,11.251c-0.402,1.205-0.603,2.611-0.603,3.616v8.639H171.221z"/>
		<path fill="#3D64AC" d="M227.878,113.936v12.055h13.259v7.032h-13.259v27.325c0,6.228,1.809,9.843,6.832,9.843
			c2.409,0,4.018-0.199,5.422-0.602l0.402,7.031c-1.807,0.603-4.62,1.205-8.236,1.205c-4.22,0-7.837-1.406-9.846-3.816
			c-2.61-2.814-3.615-7.234-3.615-13.261v-27.726H211v-7.032h7.837v-9.442L227.878,113.936z"/>
		<path fill="#3D64AC" d="M282.927,164.565c0,4.421,0.2,8.639,0.803,12.055h-8.236l-0.804-6.43h-0.402
			c-2.812,4.019-8.236,7.635-15.47,7.635c-10.247,0-15.469-7.231-15.469-14.465c0-12.256,10.847-18.886,30.537-18.886v-1.005
			c0-4.019-1.206-11.652-11.451-11.652c-4.823,0-9.644,1.406-13.262,3.817l-2.009-6.229c4.22-2.611,10.447-4.421,16.676-4.421
			c15.47,0,19.287,10.649,19.287,20.695v18.885H282.927z M274.086,150.904c-10.045-0.201-21.496,1.606-21.496,11.452
			c0,6.027,4.018,8.838,8.639,8.838c6.631,0,11.049-4.218,12.456-8.438c0.401-1.005,0.401-2.009,0.401-3.014V150.904z"/>
		<path fill="#3D64AC" d="M289.758,102.484H299v74.336h-9.242V102.484z"/>
	</g>
</g>
</svg>
