<?xml version="1.0" encoding="utf-8"?>
<!-- Generator: Adobe Illustrator 16.0.0, SVG Export Plug-In . SVG Version: 6.00 Build 0)  -->
<!DOCTYPE svg PUBLIC "-//W3C//DTD SVG 1.1//EN" "http://www.w3.org/Graphics/SVG/1.1/DTD/svg11.dtd">
<svg version="1.1"
	 id="svg2" xmlns:dc="http://purl.org/dc/elements/1.1/" xmlns:cc="http://creativecommons.org/ns#" xmlns:rdf="http://www.w3.org/1999/02/22-rdf-syntax-ns#" xmlns:svg="http://www.w3.org/2000/svg" xmlns:sodipodi="http://sodipodi.sourceforge.net/DTD/sodipodi-0.dtd" xmlns:inkscape="http://www.inkscape.org/namespaces/inkscape" sodipodi:docname="logo_znc_bw.svg" inkscape:version="0.48.4 r9939"
	 xmlns="http://www.w3.org/2000/svg" xmlns:xlink="http://www.w3.org/1999/xlink" x="0px" y="0px" width="300px" height="300px"
	 viewBox="226.213 264.08 300 300" enable-background="new 226.213 264.08 300 300" xml:space="preserve">
<sodipodi:namedview  showgrid="false" inkscape:cy="617.09229" inkscape:cx="375" inkscape:zoom="1.2359375" borderopacity="1.0" bordercolor="#666666" pagecolor="#ffffff" id="base" inkscape:window-maximized="1" inkscape:window-y="24" inkscape:current-layer="layer1" inkscape:document-units="px" inkscape:pageopacity="0.0" inkscape:window-x="0" inkscape:window-height="1056" inkscape:window-width="1920" inkscape:pageshadow="2">
	</sodipodi:namedview>
<g id="layer1" inkscape:label="Layer 1" inkscape:groupmode="layer">
	
		<g id="g3012" transform="matrix(1.2706394,0,0,-1.2706394,-158.65566,791.23766)" inkscape:label="logo_bw" inkscape:export-ydpi="90" inkscape:export-xdpi="90" inkscape:export-filename="/home/cadu/Dropbox/ZNC/Comercial/znc_logo_piquinim.png">
		<g id="g3014">
			<path id="path3016" inkscape:connector-curvature="0" d="M317.826,338.134c-3.462,0-6.25-2.787-6.25-6.25v-8.937
				c0-3.463,2.788-6.25,6.25-6.25h30.094l-33.994-22.886l0.023-0.023c-1.442-1.142-2.373-2.905-2.373-4.895v-8.937
				c0-3.462,2.788-6.25,6.25-6.25h89.987c0.651,0,1.271,0.098,1.858,0.281c2.56,0.782,4.416,3.148,4.416,5.969v27.15l39.041-31.74
				c1.185-1.12,2.672-1.52,4.252-1.659h66.682c3.463,0,6.25,2.787,6.25,6.25v8.937c0,3.463-2.787,6.25-6.25,6.25h-51.494v21.519
				h51.494c3.463,0,6.25,2.788,6.25,6.249v8.949c0,3.463-2.787,6.251-6.25,6.251h-66.682c-3.519-0.246-6.038-2.809-6.251-6.251
				v-27.196l-39.519,32.184c-0.005,0-0.01,0.001-0.012,0c-1.049,0.79-2.345,1.263-3.762,1.263h-8.95c-3.463,0-6.25-2.788-6.25-6.251
				v-36.717h-38.235l34.194,23.073c1.326,1.144,2.161,2.834,2.161,4.731v8.937c0,3.463-2.788,6.25-6.251,6.25H317.826
				L317.826,338.134z"/>
			<path id="path3018" inkscape:connector-curvature="0" d="M313.159,271.342c-0.844,0-1.519-0.674-1.519-1.518v-6.916
				c0-0.844,0.675-1.519,1.519-1.519h21.227v-1.355h-21.227c-0.844,0-1.519-0.686-1.519-1.529v-1.25
				c0-0.843,0.675-1.519,1.519-1.519h24.931c0.844,0,1.519,0.676,1.519,1.519v6.916c0,0.844-0.676,1.518-1.519,1.518h-21.226v1.355
				h21.226c0.844,0,1.519,0.687,1.519,1.531v1.25c0,0.844-0.676,1.518-1.519,1.518H313.159L313.159,271.342z"/>
			<path id="path3020" inkscape:connector-curvature="0" d="M347.942,269.69v-12.303c0-0.918-0.737-1.654-1.652-1.654h-1.918
				c-0.915,0-1.653,0.737-1.653,1.654v12.303c0,0.915,0.738,1.653,1.653,1.653h1.918
				C347.205,271.342,347.942,270.605,347.942,269.69L347.942,269.69z"/>
			<path id="path3022" inkscape:connector-curvature="0" d="M382.118,271.342c-0.845,0-1.519-0.674-1.519-1.518v-1.25
				c0-0.843,0.674-1.531,1.519-1.531h9.895v-9.66c0-0.916,0.742-1.648,1.659-1.648h1.915c0.915,0,1.648,0.732,1.648,1.648v9.66
				h9.811c0.843,0,1.519,0.688,1.519,1.531v1.25c0,0.844-0.676,1.518-1.519,1.518H382.118L382.118,271.342z"/>
			<path id="path3024" inkscape:connector-curvature="0" d="M352.021,271.342c-0.844,0-1.519-0.674-1.519-1.518v-6.915
				c0-0.844,0.676-1.52,1.519-1.52h21.225v-1.355h-21.225c-0.844,0-1.519-0.685-1.519-1.529v-1.25c0-0.844,0.676-1.519,1.519-1.519
				h24.93c0.844,0,1.517,0.675,1.517,1.519v6.916c0,0.843-0.673,1.518-1.517,1.518h-21.228v1.355h21.228
				c0.844,0,1.517,0.688,1.517,1.531v1.25c0,0.844-0.673,1.518-1.517,1.518H352.021L352.021,271.342z"/>
			<path id="path3026" inkscape:connector-curvature="0" d="M411.907,271.342c-0.843,0-1.52-0.674-1.52-1.518v-11.005
				c0-0.032,0.011-0.062,0.012-0.093c-0.002-0.044-0.012-0.086-0.012-0.128v-1.25c0-0.843,0.677-1.519,1.52-1.519h24.929
				c0.845,0,1.518,0.676,1.518,1.519v1.25c0,0.843-0.672,1.518-1.518,1.518h-21.225v1.32h21.225c0.845,0,1.518,0.674,1.518,1.518
				v1.25c0,0.844-0.672,1.531-1.518,1.531h-21.225v1.307h21.225c0.845,0,1.518,0.688,1.518,1.531v1.25
				c0,0.844-0.672,1.518-1.518,1.518H411.907L411.907,271.342z"/>
			<path id="path3028" inkscape:connector-curvature="0" d="M442.371,271.342c-0.844,0-1.53-0.674-1.53-1.518v-12.441
				c0-0.916,0.743-1.648,1.659-1.648h1.916c0.915,0,1.66,0.732,1.66,1.648v9.66h6.143v-9.66c0-0.916,0.744-1.648,1.659-1.648h1.916
				c0.918,0,1.659,0.732,1.659,1.648v9.66h6.145v-9.66c0-0.916,0.742-1.648,1.659-1.648h1.915c0.915,0,1.649,0.732,1.649,1.648
				v12.441c0,0.844-0.688,1.518-1.532,1.518H442.371L442.371,271.342z"/>
			<path id="path3030" inkscape:connector-curvature="0" d="M473.175,271.342c-0.843,0-1.519-0.674-1.519-1.518v-12.441
				c0-0.916,0.732-1.648,1.648-1.648h1.914c0.916,0,1.66,0.732,1.66,1.648v3.528h17.512v-3.528c0-0.916,0.744-1.648,1.659-1.648
				h1.916c0.916,0,1.647,0.732,1.647,1.648v3.528h0.011v4.298h-0.011v3.259c0.002,0.035,0.011,0.071,0.011,0.106v1.25
				c0,0.844-0.675,1.518-1.519,1.518H473.175L473.175,271.342z M476.878,267.042h17.512v-1.834h-17.512V267.042z"/>
			<path id="path3032" inkscape:connector-curvature="0" d="M503.801,271.125c-0.845,0-1.518-0.674-1.518-1.518v-6.916
				c0-0.843,0.673-1.518,1.518-1.518h21.227v-1.355h-21.227c-0.845,0-1.518-0.687-1.518-1.53v-1.25c0-0.845,0.673-1.52,1.518-1.52
				h24.929c0.844,0,1.519,0.675,1.519,1.52v6.916c0,0.843-0.676,1.518-1.519,1.518h-21.225v1.355h21.225
				c0.844,0,1.519,0.688,1.519,1.532v1.25c0,0.844-0.676,1.518-1.519,1.518H503.801L503.801,271.125z"/>
			<path id="path3034" inkscape:connector-curvature="0" d="M522.377,335.577c-6.426-0.311-12.866-0.017-19.301-0.109
				c-15.652-0.002-31.337,0.251-46.969-0.277c-2.562-1.174-2.656-4.355-2.346-6.786v-29.253
				c-14.852,11.915-29.407,24.187-44.384,35.949c-3.437,0.983-7.111,0.035-10.634,0.426c-2.265-0.161-3.904-2.429-3.48-4.644
				c0.052-12.785-0.031-25.573,0-38.36h-49.364c13.747,9.643,28.054,18.508,41.593,28.424c1.526,3.143,0.109,6.756,0.755,10.077
				c0.119,2.179-1.482,4.807-3.97,4.458c-9.566,0.154-19.136-0.085-28.704,0.021c-12.995-0.024-26.024,0.186-39.001-0.188
				c-2.295-0.901-2.841-3.757-2.288-5.916c0.151-2.986-0.979-6.568,1.025-9.059c2.711-2.056,6.309-0.588,9.427-1.019h31.715
				c-13.746-9.564-27.958-18.456-41.521-28.275c-1.665-3.081-0.192-6.7-0.837-10.004c-0.127-2.051,1.026-4.646,3.365-4.61
				c3.834-0.414,7.736,0.184,11.596-0.093c26.699,0.115,53.423-0.287,80.109,0.217c2.451,1.011,2.628,4.042,2.298,6.308v29.746
				c14.83-11.888,29.375-24.14,44.351-35.841c4.199-1.131,8.568-0.018,12.842-0.425c18.943,0.121,37.918-0.327,56.84,0.261
				c2.472,1.13,2.522,4.345,2.1,6.696c-0.053,2.75,0.953,6.212-1.213,8.378c-2.864,1.781-6.363,0.435-9.511,0.845h-46.927v26.767
				c18.536,0.187,37.114-0.37,55.625,0.294c2.457,1.209,2.399,4.368,2.026,6.688c-0.053,2.748,0.955,6.195-1.224,8.378
				C525.223,335.46,523.758,335.608,522.377,335.577L522.377,335.577z"/>
		</g>
	</g>
</g>
</svg>
