<?xml version="1.0" encoding="utf-8"?>
<!-- Generator: Adobe Illustrator 16.0.0, SVG Export Plug-In . SVG Version: 6.00 Build 0)  -->
<!DOCTYPE svg PUBLIC "-//W3C//DTD SVG 1.1//EN" "http://www.w3.org/Graphics/SVG/1.1/DTD/svg11.dtd">
<svg version="1.1" id="Layer_1" xmlns="http://www.w3.org/2000/svg" xmlns:xlink="http://www.w3.org/1999/xlink" x="0px" y="0px"
	 width="24px" height="24px" viewBox="-4 0 24 24" enable-background="new -4 0 24 24" xml:space="preserve">
<g>
	<path fill="#CECECE" d="M6.818,12.458v0.077c-0.11,0.102-0.531,0.395-2.097,0.999c-0.236,0.091-0.39,0.314-0.39,0.57v0.468
		c0,0.206,0.168,0.375,0.375,0.375c0.207,0,0.375-0.169,0.375-0.375v-0.374c2.12-0.825,2.384-1.164,2.469-1.438
		c0.012-0.036,0.017-0.074,0.017-0.111v-0.333c0-0.098-0.039-0.192-0.107-0.263c-0.178-0.182-0.318-0.439-0.403-0.744
		c-0.023-0.084-0.075-0.156-0.145-0.206c-0.035-0.024-0.059-0.065-0.066-0.11c-0.004-0.032-0.001-0.08,0.038-0.128
		c0.054-0.066,0.083-0.149,0.083-0.236V9.882c0-0.61,0.347-0.919,1.033-0.919c0.705,0,1.031,0.292,1.031,0.919v0.745
		c0,0.086,0.03,0.17,0.085,0.237c0.038,0.047,0.041,0.096,0.037,0.129c-0.007,0.044-0.03,0.084-0.065,0.109
		c-0.072,0.05-0.122,0.122-0.146,0.206c-0.087,0.305-0.226,0.563-0.403,0.745c-0.069,0.071-0.107,0.165-0.107,0.263v0.334
		c0,0.037,0.006,0.074,0.016,0.11c0.085,0.276,0.349,0.613,2.469,1.438v0.374c0,0.208,0.169,0.375,0.375,0.375
		c0.208,0,0.375-0.167,0.375-0.375v-0.466c0-0.254-0.156-0.483-0.389-0.572C9.65,12.906,9.26,12.615,9.18,12.551v-0.092
		c0.192-0.229,0.345-0.515,0.448-0.835c0.144-0.14,0.239-0.326,0.267-0.528c0.026-0.205-0.014-0.407-0.114-0.583v-0.63
		c0-1.045-0.667-1.669-1.782-1.669c-1.099,0-1.783,0.639-1.783,1.669v0.63c-0.103,0.175-0.142,0.377-0.113,0.582
		c0.027,0.202,0.122,0.388,0.265,0.528C6.472,11.943,6.625,12.229,6.818,12.458z"/>
	<path fill="#CECECE" d="M6.56,6.717C6.616,7.171,7.01,7.5,7.494,7.5h1.012c0.484,0,0.878-0.327,0.934-0.776L9.775,4.05
		c0.033-0.257-0.049-0.512-0.229-0.716C9.364,3.125,9.099,3,8.842,3H7.158c-0.257,0-0.52,0.124-0.703,0.33
		c-0.184,0.206-0.264,0.466-0.231,0.73L6.56,6.717z M7.018,3.827c0.045-0.05,0.104-0.077,0.14-0.077h1.684
		c0.035,0,0.098,0.028,0.142,0.08c0.025,0.028,0.054,0.073,0.048,0.126L8.695,6.631C8.686,6.713,8.59,6.75,8.506,6.75H7.494
		c-0.087,0-0.181-0.043-0.191-0.126L6.968,3.967C6.96,3.906,6.99,3.857,7.018,3.827z"/>
	<path fill="#CECECE" d="M12.231,6H11c-0.207,0-0.375,0.168-0.375,0.375S10.793,6.75,11,6.75h1.231c0.562,0,1.019,0.416,1.019,0.926
		v8.074H2.75V7.676c0-0.51,0.456-0.926,1.017-0.926H5c0.207,0,0.375-0.168,0.375-0.375S5.207,6,5,6H3.767C2.793,6,2,6.752,2,7.676
		v11.729C2,20.314,2.76,21,3.767,21h8.464C13.24,21,14,20.314,14,19.406V7.676C14,6.752,13.206,6,12.231,6z M12.231,20.25H3.767
		c-0.493,0-1.017-0.296-1.017-0.844V16.5h10.5v2.906C13.25,19.954,12.726,20.25,12.231,20.25z"/>
	<path fill="#CECECE" d="M11.293,18H8.456c-0.207,0-0.375,0.168-0.375,0.375c0,0.208,0.168,0.375,0.375,0.375h2.837
		c0.207,0,0.375-0.167,0.375-0.375C11.668,18.168,11.5,18,11.293,18z"/>
	<path fill="#CECECE" d="M6.206,18h-1.5c-0.207,0-0.375,0.168-0.375,0.375c0,0.208,0.168,0.375,0.375,0.375h1.5
		c0.207,0,0.375-0.167,0.375-0.375C6.581,18.168,6.414,18,6.206,18z"/>
	<path fill="#CECECE" d="M8,5.264c0.105,0,0.202-0.037,0.263-0.112c0.076-0.068,0.112-0.165,0.112-0.263
		c0-0.09-0.038-0.188-0.112-0.263c-0.136-0.142-0.368-0.149-0.533,0C7.662,4.702,7.625,4.792,7.625,4.889
		c0,0.098,0.037,0.195,0.111,0.27C7.804,5.227,7.902,5.264,8,5.264z"/>
</g>
</svg>
