<?xml version="1.0" encoding="utf-8"?>
<!-- Generator: Adobe Illustrator 16.0.0, SVG Export Plug-In . SVG Version: 6.00 Build 0)  -->
<!DOCTYPE svg PUBLIC "-//W3C//DTD SVG 1.1//EN" "http://www.w3.org/Graphics/SVG/1.1/DTD/svg11.dtd">
<svg version="1.1" id="Layer_1" xmlns="http://www.w3.org/2000/svg" xmlns:xlink="http://www.w3.org/1999/xlink" x="0px" y="0px"
	 width="24px" height="24px" viewBox="-0.004 -3.341 24 24" enable-background="new -0.004 -3.341 24 24" xml:space="preserve">
<g>
	<path fill="#CECECE" d="M15.566,12.409c-3.707-1.465-4.347-2.085-4.456-2.252V9.718c0.415-0.478,0.742-1.091,0.951-1.792
		c0.267-0.238,0.444-0.571,0.495-0.934c0.052-0.374-0.031-0.743-0.232-1.055V4.532c0-1.964-1.188-3.092-3.259-3.092
		c-2.041,0-3.259,1.156-3.259,3.092v1.405C5.604,6.25,5.521,6.618,5.573,6.991C5.623,7.354,5.8,7.687,6.067,7.926
		C6.276,8.627,6.602,9.24,7.018,9.719v0.438c-0.122,0.191-0.8,0.805-4.457,2.25c-0.343,0.137-0.566,0.471-0.566,0.847v1.719
		c0,0.5,0.399,0.905,0.887,0.905h12.362c0.489,0,0.889-0.405,0.889-0.905v-1.719C16.134,12.883,15.904,12.543,15.566,12.409z
		 M15.299,14.973c0,0.044-0.027,0.071-0.054,0.071H2.882c-0.025,0-0.054-0.027-0.054-0.071l0.039-1.789
		c4.104-1.622,4.811-2.314,4.966-2.818c0.012-0.039,0.017-0.081,0.017-0.122V9.556c0-0.107-0.042-0.21-0.116-0.287
		c-0.402-0.421-0.714-1.006-0.9-1.695C6.81,7.482,6.752,7.401,6.676,7.346c-0.15-0.107-0.251-0.278-0.278-0.469
		c-0.027-0.195,0.026-0.39,0.15-0.546c0.059-0.074,0.09-0.165,0.09-0.259V4.532c0-1.477,0.839-2.257,2.425-2.257
		c1.609,0,2.424,0.759,2.424,2.257V6.07c0,0.094,0.032,0.186,0.09,0.26c0.124,0.156,0.178,0.35,0.151,0.546
		c-0.027,0.191-0.128,0.362-0.278,0.469c-0.077,0.056-0.133,0.137-0.159,0.228c-0.188,0.688-0.5,1.273-0.901,1.695
		c-0.074,0.077-0.115,0.181-0.115,0.287v0.688c0,0.042,0.006,0.083,0.017,0.122c0.156,0.506,0.863,1.199,5.004,2.889V14.973z"/>
	<path fill="#CECECE" d="M21.492,13.031c-2.778-1.073-3.328-1.545-3.433-1.667v-0.266c0.317-0.366,0.568-0.83,0.732-1.355
		c0.217-0.197,0.359-0.469,0.398-0.763c0.043-0.299-0.022-0.596-0.182-0.85V7.085c0-1.544-0.988-2.466-2.644-2.466
		s-2.645,0.922-2.645,2.466v1.047c-0.16,0.253-0.225,0.548-0.183,0.848c0.041,0.294,0.184,0.566,0.398,0.764
		c0.186,0.591,0.478,1.102,0.852,1.484c0.161,0.164,0.425,0.168,0.589,0.007c0.165-0.161,0.168-0.425,0.007-0.59
		c-0.303-0.311-0.539-0.745-0.682-1.256c-0.026-0.092-0.083-0.173-0.161-0.228c-0.097-0.068-0.161-0.175-0.178-0.295
		c-0.017-0.122,0.018-0.242,0.096-0.339c0.061-0.074,0.093-0.167,0.093-0.263v-1.18c0-1.067,0.627-1.633,1.813-1.633
		c1.199,0,1.81,0.55,1.81,1.633v1.179c0,0.096,0.033,0.19,0.093,0.263c0.078,0.098,0.114,0.218,0.097,0.339
		c-0.017,0.12-0.08,0.226-0.176,0.294c-0.08,0.055-0.137,0.136-0.163,0.229c-0.144,0.511-0.379,0.945-0.682,1.256
		c-0.077,0.078-0.119,0.185-0.119,0.292v0.527c0,0.042,0.007,0.084,0.018,0.123c0.121,0.385,0.534,0.903,3.92,2.183l0.047,1.274
		h-3.82c-0.229,0-0.416,0.188-0.416,0.417c0,0.231,0.187,0.417,0.416,0.417h3.82c0.435,0,0.786-0.355,0.786-0.79V13.77
		C21.997,13.445,21.793,13.149,21.492,13.031z"/>
</g>
</svg>
