<?xml version="1.0" encoding="utf-8"?>
<!-- Generator: Adobe Illustrator 16.0.0, SVG Export Plug-In . SVG Version: 6.00 Build 0)  -->
<!DOCTYPE svg PUBLIC "-//W3C//DTD SVG 1.1//EN" "http://www.w3.org/Graphics/SVG/1.1/DTD/svg11.dtd">
<svg version="1.1" id="Layer_1" xmlns="http://www.w3.org/2000/svg" xmlns:xlink="http://www.w3.org/1999/xlink" x="0px" y="0px"
	 width="300px" height="300px" viewBox="0 0 300 300" enable-background="new 0 0 300 300" xml:space="preserve">
<g>
	<path fill="#3E5AA9" d="M74.751,154.743c0,18.274-13.172,29.026-32.292,29.026c-6.877,0-24.72-3.09-24.72-12.3
		c0-3.146,3.496-7.342,6.761-7.342c5.361,0,9.567,4.953,19.243,4.953c8.159,0,14.255-5.428,14.221-12.005v-3.963h-0.234
		c-3.497,5.128-9.209,7.927-16.903,7.927c-17.602,0-25.881-15.5-25.881-32.172c0-16.903,10.726-32.642,27.631-32.642
		c5.711,0,12.241,2.566,15.387,7.694c1.047-4.428,3.729-6.996,8.392-6.996c4.899,0,8.394,3.732,8.394,9.327v48.491H74.751z
		 M44.792,111.614c-8.744,0-13.057,9.09-13.057,16.903c0,8.976,4.313,17.136,13.057,17.136c8.976,0,13.172-8.394,13.172-16.553
		C57.964,120.938,54,111.614,44.792,111.614z"/>
	<path fill="#3E5AA9" d="M78.891,83.067c0-5.597,3.496-9.327,8.394-9.327c4.894,0,8.392,3.729,8.392,9.327v67.949
		c0,5.595-3.499,9.326-8.392,9.326c-4.899,0-8.394-3.729-8.394-9.326V83.067z"/>
	<path fill="#3E5AA9" d="M159.15,128.751c0,17.486-12.008,32.288-30.077,32.288c-18.069,0-30.075-14.802-30.075-32.288
		c0-17.021,12.356-32.526,30.075-32.526C146.792,96.225,159.15,111.729,159.15,128.751z M115.786,128.751
		c0,8.043,4.195,16.903,13.288,16.903c9.094,0,13.289-8.86,13.289-16.903c0-8.045-4.079-17.136-13.289-17.136
		C119.865,111.615,115.786,120.706,115.786,128.751z"/>
	<path fill="#3E5AA9" d="M162.361,83.067c0-5.597,3.5-9.327,8.395-9.327s8.391,3.729,8.391,9.327v18.987
		c4.432-3.845,10.143-5.829,15.973-5.829c18.066,0,27.045,16.904,27.045,33.225c0,15.852-10.725,31.589-27.631,31.589
		c-5.711,0-12.238-2.563-15.387-7.693c-1.047,4.427-3.729,6.994-8.391,6.994c-4.896,0-8.395-3.729-8.395-9.325V83.067z
		 M192.322,145.654c8.744,0,13.057-9.093,13.057-16.903c0-7.927-4.312-17.136-13.057-17.136c-8.977,0-13.174,8.392-13.174,16.553
		C179.148,136.327,183.113,145.654,192.322,145.654z"/>
	<path fill="#3E5AA9" d="M285.055,128.751c0,17.486-12.006,32.288-30.076,32.288c-18.068,0-30.078-14.802-30.078-32.288
		c0-17.021,12.359-32.526,30.078-32.526C272.699,96.225,285.055,111.729,285.055,128.751z M241.688,128.751
		c0,8.043,4.197,16.903,13.291,16.903c9.092,0,13.289-8.86,13.289-16.903c0-8.045-4.08-17.136-13.289-17.136
		S241.688,120.706,241.688,128.751z"/>
	<path fill="#3E5AA9" d="M56.382,226.26c-4.788,0-8.683-3.896-8.683-8.682c0-4.785,3.895-8.681,8.683-8.681
		c4.786,0,8.68,3.896,8.68,8.681C65.062,222.364,61.168,226.26,56.382,226.26z"/>
	<path fill="#3E5AA9" d="M90.835,226.26c-15.412,0-27.033-12.454-27.033-28.967c0-16.36,11.875-29.174,27.033-29.174
		c7.219,0,18.674,2.717,18.674,10.006c0,3.672-2.602,7.767-6.338,7.767c-1.857,0-3.554-0.654-5.349-1.345
		c-1.927-0.741-3.92-1.509-6.272-1.509c-8.017,0-11.606,7.156-11.606,14.253c0,6.812,4.067,14.053,11.606,14.053
		c2.041,0,4.806-1.055,7.031-1.904c1.696-0.646,3.036-1.154,3.878-1.154c3.821,0,7.051,3.274,7.051,7.151
		C109.51,223.532,96.686,226.26,90.835,226.26z"/>
	<path fill="#3E5AA9" d="M135.348,226.26c-15.41,0-27.031-12.454-27.031-28.967c0-16.36,11.874-29.174,27.031-29.174
		c15.158,0,27.031,12.813,27.031,29.174C162.379,213.806,150.758,226.26,135.348,226.26z M135.348,183.039
		c-7.483,0-10.892,7.39-10.892,14.254c0,6.769,3.408,14.052,10.892,14.052c7.485,0,10.893-7.283,10.893-14.052
		C146.241,190.429,142.833,183.039,135.348,183.039z"/>
	<path fill="#3E5AA9" d="M236.34,225.649c-4.75,0-8.07-3.655-8.07-8.888v-25.587c0-5.686-3.074-9.36-7.832-9.36
		c-4.824,0-7.938,3.675-7.938,9.36v25.587c0,5.232-3.318,8.888-8.066,8.888c-4.752,0-8.072-3.655-8.072-8.888v-25.587
		c0-5.686-3.074-9.36-7.832-9.36c-6.904,0-7.936,5.865-7.936,9.36v25.587c0,5.232-3.316,8.888-8.068,8.888s-8.072-3.655-8.072-8.888
		v-39.145c0-5.23,3.32-8.885,8.072-8.885c3.592,0,6.174,1.757,7.137,4.773c3.678-3.529,8.23-5.387,13.252-5.387
		c6.029,0,11.271,2.436,15.213,7.058c4.027-4.247,10.139-7.058,15.469-7.058c12.84,0,20.814,7.857,20.814,20.507v28.136
		C244.41,221.994,241.092,225.649,236.34,225.649z"/>
</g>
</svg>
